<svg xmlns="http://www.w3.org/2000/svg" width="319.094" height="61.333" viewBox="0 0 319.094 61.333">
  <g id="Grupo_657" data-name="Grupo 657" transform="translate(-1772.5 -2441.782)">
    <g id="Grupo_651" data-name="Grupo 651" transform="translate(897.576 -463)">
      <path id="União_4" data-name="União 4" d="M15.429,37.962V27.639H10.176V22.644H0V15.318H10.176v-5H4.924V5h5.252v5.328h5.252V0H302.993V10.323h5.252v5h9.848v7.326h-9.848v4.995h-5.252V37.962Zm292.817-5V27.639H313.5v5.328Zm-303.321,0V27.639h5.252v5.328ZM308.246,10.323V5H313.5v5.328Z" transform="translate(875.423 2911.828)" fill="#38243f" stroke="rgba(0,0,0,0)" stroke-miterlimit="10" stroke-width="1"/>
      <path id="União_3" data-name="União 3" d="M15.429,37.962V27.639H10.176V22.644H0V15.318H10.176v-5H4.924V5h5.252v5.328h5.252V0H302.993V10.323h5.252v5h9.848v7.326h-9.848v4.995h-5.252V37.962Zm292.817-5V27.639H313.5v5.328Zm-303.321,0V27.639h5.252v5.328ZM308.246,10.323V5H313.5v5.328Z" transform="translate(875.423 2905.282)" fill="#e7e6dd" stroke="rgba(0,0,0,0)" stroke-miterlimit="10" stroke-width="1"/>
    </g>
    <g id="Grupo_652" data-name="Grupo 652" transform="translate(898.105 -463)">
      <path id="União_1" data-name="União 1" d="M8.345,21.826V14.764H0v-7.7H8.345V0H108.807V7.061h8.345v7.7h-8.345v7.061Z" transform="translate(975.895 2943.79)" fill="#92133a" stroke="rgba(0,0,0,0)" stroke-miterlimit="10" stroke-width="1"/>
    </g>
  </g>
</svg>
