<svg xmlns="http://www.w3.org/2000/svg" xmlns:xlink="http://www.w3.org/1999/xlink" width="60" height="61" viewBox="0 0 60 61">
  <defs>
    <clipPath id="clip-path">
      <rect id="Retângulo_159" data-name="Retângulo 159" width="60" height="61" transform="translate(2249 1785)" fill="#fff" stroke="#707070" stroke-width="1"/>
    </clipPath>
    <clipPath id="clip-path-2">
      <rect id="Retângulo_78" data-name="Retângulo 78" width="104.578" height="61" fill="none"/>
    </clipPath>
  </defs>
  <g id="Grupo_de_máscara_5" data-name="Grupo de máscara 5" transform="translate(-2249 -1785)" clip-path="url(#clip-path)">
    <g id="USA" transform="translate(2244.83 1785.239)">
      <g id="Grupo_422" data-name="Grupo 422" transform="translate(0 0)">
        <g id="Grupo_421" data-name="Grupo 421">
          <g id="Grupo_420" data-name="Grupo 420" clip-path="url(#clip-path-2)">
            <rect id="Retângulo_64" data-name="Retângulo 64" width="104.578" height="4.692" transform="translate(0 56.308)" fill="#cb001c"/>
            <rect id="Retângulo_65" data-name="Retângulo 65" width="104.578" height="4.692" transform="translate(0 51.616)" fill="#fff"/>
            <rect id="Retângulo_66" data-name="Retângulo 66" width="104.578" height="4.689" transform="translate(0 46.927)" fill="#cb001c"/>
            <rect id="Retângulo_67" data-name="Retângulo 67" width="104.578" height="4.692" transform="translate(0 42.236)" fill="#fff"/>
            <rect id="Retângulo_68" data-name="Retângulo 68" width="104.578" height="4.695" transform="translate(0 37.541)" fill="#cb001c"/>
            <rect id="Retângulo_69" data-name="Retângulo 69" width="104.578" height="4.689" transform="translate(0 32.852)" fill="#fff"/>
            <rect id="Retângulo_70" data-name="Retângulo 70" width="104.578" height="4.698" transform="translate(0 28.154)" fill="#cb001c"/>
            <rect id="Retângulo_71" data-name="Retângulo 71" width="104.578" height="4.689" transform="translate(0 23.465)" fill="#fff"/>
            <rect id="Retângulo_72" data-name="Retângulo 72" width="104.578" height="4.692" transform="translate(0 18.773)" fill="#cb001c"/>
            <rect id="Retângulo_73" data-name="Retângulo 73" width="104.578" height="4.695" transform="translate(0 14.079)" fill="#fff"/>
            <rect id="Retângulo_74" data-name="Retângulo 74" width="104.578" height="4.692" transform="translate(0 9.387)" fill="#cb001c"/>
            <rect id="Retângulo_75" data-name="Retângulo 75" width="104.578" height="4.692" transform="translate(0 4.695)" fill="#fff"/>
            <rect id="Retângulo_76" data-name="Retângulo 76" width="104.578" height="4.695" fill="#cb001c"/>
            <rect id="Retângulo_77" data-name="Retângulo 77" width="47.758" height="32.852" fill="#2a3560"/>
            <path id="Caminho_754" data-name="Caminho 754" d="M1119.105,366.825l.407,1.244h1.309l-1.059.767.4,1.242-1.059-.767-1.059.767.414-1.242-1.059-.767h1.3Z" transform="translate(-1114.79 -363.204)" fill="#fff"/>
            <path id="Caminho_755" data-name="Caminho 755" d="M1119.105,368.586l.407,1.238h1.309l-1.059.764.4,1.247-1.059-.77-1.059.77.414-1.247-1.059-.764h1.3Z" transform="translate(-1114.79 -359.479)" fill="#fff"/>
            <path id="Caminho_756" data-name="Caminho 756" d="M1119.105,370.346l.407,1.239h1.309l-1.059.767.4,1.244-1.059-.77-1.059.77.414-1.244-1.059-.767h1.3Z" transform="translate(-1114.79 -355.756)" fill="#fff"/>
            <path id="Caminho_757" data-name="Caminho 757" d="M1119.105,372.1l.407,1.244h1.309l-1.059.767.4,1.238-1.059-.764-1.059.764.414-1.238-1.059-.767h1.3Z" transform="translate(-1114.79 -352.035)" fill="#fff"/>
            <path id="Caminho_758" data-name="Caminho 758" d="M1119.105,373.864l.407,1.247h1.309l-1.059.76.4,1.242-1.059-.767-1.059.767.414-1.242-1.059-.76h1.3Z" transform="translate(-1114.79 -348.312)" fill="#fff"/>
            <path id="Caminho_759" data-name="Caminho 759" d="M1120.336,367.752l.39,1.244h1.314l-1.052.77.4,1.238-1.047-.764-1.053.764.4-1.238-1.053-.77h1.308Z" transform="translate(-1112.199 -361.244)" fill="#fff"/>
            <path id="Caminho_760" data-name="Caminho 760" d="M1120.336,369.513l.39,1.239h1.314l-1.052.77.4,1.238-1.047-.761-1.053.761.4-1.238-1.053-.77h1.308Z" transform="translate(-1112.199 -357.519)" fill="#fff"/>
            <path id="Caminho_761" data-name="Caminho 761" d="M1120.336,371.273l.39,1.241h1.314l-1.052.767.4,1.242-1.047-.767-1.053.767.4-1.242-1.053-.767h1.308Z" transform="translate(-1112.199 -353.795)" fill="#fff"/>
            <path id="Caminho_762" data-name="Caminho 762" d="M1120.336,373.033l.39,1.238h1.314l-1.052.767.4,1.238-1.047-.77-1.053.77.4-1.238-1.053-.767h1.308Z" transform="translate(-1112.199 -350.07)" fill="#fff"/>
            <path id="Caminho_763" data-name="Caminho 763" d="M1121.569,366.825l.408,1.244h1.308l-1.059.767.408,1.242-1.065-.767-1.047.767.4-1.242-1.058-.767h1.3Z" transform="translate(-1109.575 -363.204)" fill="#fff"/>
            <path id="Caminho_764" data-name="Caminho 764" d="M1121.569,368.586l.408,1.238h1.308l-1.059.764.408,1.247-1.065-.77-1.047.77.4-1.247-1.058-.764h1.3Z" transform="translate(-1109.575 -359.479)" fill="#fff"/>
            <path id="Caminho_765" data-name="Caminho 765" d="M1121.569,370.346l.408,1.239h1.308l-1.059.767.408,1.244-1.065-.77-1.047.77.4-1.244-1.058-.767h1.3Z" transform="translate(-1109.575 -355.756)" fill="#fff"/>
            <path id="Caminho_766" data-name="Caminho 766" d="M1121.569,372.1l.408,1.244h1.308l-1.059.767.408,1.238-1.065-.764-1.047.764.4-1.238-1.058-.767h1.3Z" transform="translate(-1109.575 -352.035)" fill="#fff"/>
            <path id="Caminho_767" data-name="Caminho 767" d="M1121.569,373.864l.408,1.247h1.308l-1.059.76.408,1.242-1.065-.767-1.047.767.4-1.242-1.058-.76h1.3Z" transform="translate(-1109.575 -348.312)" fill="#fff"/>
            <path id="Caminho_768" data-name="Caminho 768" d="M1122.8,367.752l.4,1.244h1.315l-1.065.77.408,1.238-1.06-.764-1.053.764.408-1.238-1.065-.77h1.308Z" transform="translate(-1106.984 -361.244)" fill="#fff"/>
            <path id="Caminho_769" data-name="Caminho 769" d="M1122.8,369.513l.4,1.239h1.315l-1.065.77.408,1.238L1122.8,372l-1.053.761.408-1.238-1.065-.77h1.308Z" transform="translate(-1106.984 -357.519)" fill="#fff"/>
            <path id="Caminho_770" data-name="Caminho 770" d="M1122.8,371.273l.4,1.241h1.315l-1.065.767.408,1.242-1.06-.767-1.053.767.408-1.242-1.065-.767h1.308Z" transform="translate(-1106.984 -353.795)" fill="#fff"/>
            <path id="Caminho_771" data-name="Caminho 771" d="M1122.8,373.033l.4,1.238h1.315l-1.065.767.408,1.238-1.06-.77-1.053.77.408-1.238-1.065-.767h1.308Z" transform="translate(-1106.984 -350.07)" fill="#fff"/>
            <path id="Caminho_772" data-name="Caminho 772" d="M1124.039,366.825l.408,1.244h1.3l-1.059.767.42,1.242-1.065-.767-1.059.767.4-1.242-1.047-.767h1.3Z" transform="translate(-1104.352 -363.204)" fill="#fff"/>
            <path id="Caminho_773" data-name="Caminho 773" d="M1124.039,368.586l.408,1.238h1.3l-1.059.764.42,1.247-1.065-.77-1.059.77.4-1.247-1.047-.764h1.3Z" transform="translate(-1104.352 -359.479)" fill="#fff"/>
            <path id="Caminho_774" data-name="Caminho 774" d="M1124.039,370.346l.408,1.239h1.3l-1.059.767.42,1.244-1.065-.77-1.059.77.4-1.244-1.047-.767h1.3Z" transform="translate(-1104.352 -355.756)" fill="#fff"/>
            <path id="Caminho_775" data-name="Caminho 775" d="M1124.039,372.1l.408,1.244h1.3l-1.059.767.42,1.238-1.065-.764-1.059.764.4-1.238-1.047-.767h1.3Z" transform="translate(-1104.352 -352.035)" fill="#fff"/>
            <path id="Caminho_776" data-name="Caminho 776" d="M1124.039,373.864l.408,1.247h1.3l-1.059.76.42,1.242-1.065-.767-1.059.767.4-1.242-1.047-.76h1.3Z" transform="translate(-1104.352 -348.312)" fill="#fff"/>
            <path id="Caminho_777" data-name="Caminho 777" d="M1125.269,367.752l.4,1.244h1.3l-1.053.77.4,1.238-1.047-.764-1.052.764.4-1.238-1.052-.77h1.3Z" transform="translate(-1101.761 -361.244)" fill="#fff"/>
            <path id="Caminho_778" data-name="Caminho 778" d="M1125.269,369.513l.4,1.239h1.3l-1.053.77.4,1.238-1.047-.761-1.052.761.4-1.238-1.052-.77h1.3Z" transform="translate(-1101.761 -357.519)" fill="#fff"/>
            <path id="Caminho_779" data-name="Caminho 779" d="M1125.269,371.273l.4,1.241h1.3l-1.053.767.4,1.242-1.047-.767-1.052.767.4-1.242-1.052-.767h1.3Z" transform="translate(-1101.761 -353.795)" fill="#fff"/>
            <path id="Caminho_780" data-name="Caminho 780" d="M1125.269,373.033l.4,1.238h1.3l-1.053.767.4,1.238-1.047-.77-1.052.77.4-1.238-1.052-.767h1.3Z" transform="translate(-1101.761 -350.07)" fill="#fff"/>
            <path id="Caminho_781" data-name="Caminho 781" d="M1126.5,366.825l.408,1.244h1.3l-1.053.767.407,1.242-1.065-.767-1.047.767.4-1.242-1.053-.767h1.3Z" transform="translate(-1099.137 -363.204)" fill="#fff"/>
            <path id="Caminho_782" data-name="Caminho 782" d="M1126.5,368.586l.408,1.238h1.3l-1.053.764.407,1.247-1.065-.77-1.047.77.4-1.247-1.053-.764h1.3Z" transform="translate(-1099.137 -359.479)" fill="#fff"/>
            <path id="Caminho_783" data-name="Caminho 783" d="M1126.5,370.346l.408,1.239h1.3l-1.053.767.407,1.244-1.065-.77-1.047.77.4-1.244-1.053-.767h1.3Z" transform="translate(-1099.137 -355.756)" fill="#fff"/>
            <path id="Caminho_784" data-name="Caminho 784" d="M1126.5,372.1l.408,1.244h1.3l-1.053.767.407,1.238-1.065-.764-1.047.764.4-1.238-1.053-.767h1.3Z" transform="translate(-1099.137 -352.035)" fill="#fff"/>
            <path id="Caminho_785" data-name="Caminho 785" d="M1126.5,373.864l.408,1.247h1.3l-1.053.76.407,1.242-1.065-.767-1.047.767.4-1.242-1.053-.76h1.3Z" transform="translate(-1099.137 -348.312)" fill="#fff"/>
            <path id="Caminho_786" data-name="Caminho 786" d="M1127.73,367.752l.4,1.244h1.315l-1.059.77.4,1.238-1.059-.764-1.053.764.408-1.238-1.059-.77h1.309Z" transform="translate(-1096.542 -361.244)" fill="#fff"/>
            <path id="Caminho_787" data-name="Caminho 787" d="M1127.73,369.513l.4,1.239h1.315l-1.059.77.4,1.238L1127.73,372l-1.053.761.408-1.238-1.059-.77h1.309Z" transform="translate(-1096.542 -357.519)" fill="#fff"/>
            <path id="Caminho_788" data-name="Caminho 788" d="M1127.73,371.273l.4,1.241h1.315l-1.059.767.4,1.242-1.059-.767-1.053.767.408-1.242-1.059-.767h1.309Z" transform="translate(-1096.542 -353.795)" fill="#fff"/>
            <path id="Caminho_789" data-name="Caminho 789" d="M1127.73,373.033l.4,1.238h1.315l-1.059.767.4,1.238-1.059-.77-1.053.77.408-1.238-1.059-.767h1.309Z" transform="translate(-1096.542 -350.07)" fill="#fff"/>
            <path id="Caminho_790" data-name="Caminho 790" d="M1128.972,366.825l.408,1.244h1.3l-1.053.767.4,1.242-1.053-.767-1.047.767.4-1.242-1.053-.767h1.3Z" transform="translate(-1093.914 -363.204)" fill="#fff"/>
            <path id="Caminho_791" data-name="Caminho 791" d="M1128.972,368.586l.408,1.238h1.3l-1.053.764.4,1.247-1.053-.77-1.047.77.4-1.247-1.053-.764h1.3Z" transform="translate(-1093.914 -359.479)" fill="#fff"/>
            <path id="Caminho_792" data-name="Caminho 792" d="M1128.972,370.346l.408,1.239h1.3l-1.053.767.4,1.244-1.053-.77-1.047.77.4-1.244-1.053-.767h1.3Z" transform="translate(-1093.914 -355.756)" fill="#fff"/>
            <path id="Caminho_793" data-name="Caminho 793" d="M1128.972,372.1l.408,1.244h1.3l-1.053.767.4,1.238-1.053-.764-1.047.764.4-1.238-1.053-.767h1.3Z" transform="translate(-1093.914 -352.035)" fill="#fff"/>
            <path id="Caminho_794" data-name="Caminho 794" d="M1128.972,373.864l.408,1.247h1.3l-1.053.76.4,1.242-1.053-.767-1.047.767.4-1.242-1.053-.76h1.3Z" transform="translate(-1093.914 -348.312)" fill="#fff"/>
            <path id="Caminho_795" data-name="Caminho 795" d="M1130.2,367.752l.395,1.244h1.308l-1.046.77.389,1.238-1.047-.764-1.065.764.407-1.238-1.046-.77h1.3Z" transform="translate(-1091.318 -361.244)" fill="#fff"/>
            <path id="Caminho_796" data-name="Caminho 796" d="M1130.2,369.513l.395,1.239h1.308l-1.046.77.389,1.238L1130.2,372l-1.065.761.407-1.238-1.046-.77h1.3Z" transform="translate(-1091.318 -357.519)" fill="#fff"/>
            <path id="Caminho_797" data-name="Caminho 797" d="M1130.2,371.273l.395,1.241h1.308l-1.046.767.389,1.242-1.047-.767-1.065.767.407-1.242-1.046-.767h1.3Z" transform="translate(-1091.318 -353.795)" fill="#fff"/>
            <path id="Caminho_798" data-name="Caminho 798" d="M1130.2,373.033l.395,1.238h1.308l-1.046.767.389,1.238-1.047-.77-1.065.77.407-1.238-1.046-.767h1.3Z" transform="translate(-1091.318 -350.07)" fill="#fff"/>
            <path id="Caminho_799" data-name="Caminho 799" d="M1131.436,366.825l.414,1.244h1.3l-1.053.767.408,1.242-1.065-.767-1.046.767.4-1.242-1.053-.767h1.3Z" transform="translate(-1088.699 -363.204)" fill="#fff"/>
            <path id="Caminho_800" data-name="Caminho 800" d="M1131.436,368.586l.414,1.238h1.3l-1.053.764.408,1.247-1.065-.77-1.046.77.4-1.247-1.053-.764h1.3Z" transform="translate(-1088.699 -359.479)" fill="#fff"/>
            <path id="Caminho_801" data-name="Caminho 801" d="M1131.436,370.346l.414,1.239h1.3l-1.053.767.408,1.244-1.065-.77-1.046.77.4-1.244-1.053-.767h1.3Z" transform="translate(-1088.699 -355.756)" fill="#fff"/>
            <path id="Caminho_802" data-name="Caminho 802" d="M1131.436,372.1l.414,1.244h1.3l-1.053.767.408,1.238-1.065-.764-1.046.764.4-1.238-1.053-.767h1.3Z" transform="translate(-1088.699 -352.035)" fill="#fff"/>
            <path id="Caminho_803" data-name="Caminho 803" d="M1131.436,373.864l.414,1.247h1.3l-1.053.76.408,1.242-1.065-.767-1.046.767.4-1.242-1.053-.76h1.3Z" transform="translate(-1088.699 -348.312)" fill="#fff"/>
          </g>
        </g>
      </g>
    </g>
  </g>
</svg>
