<svg xmlns="http://www.w3.org/2000/svg" width="288.504" height="80.436" viewBox="0 0 288.504 80.436">
  <g id="Grupo_495" data-name="Grupo 495" transform="translate(-460.496 -27.621)">
    <text id="Minha_figurinha_da_Copa_2022" data-name="Minha figurinha
da Copa 2022" transform="translate(545 61)" fill="#fff" font-size="27" font-family="Qatar2022Arabic-Bold, Qatar2022 Arabic" font-weight="700"><tspan x="0" y="0">Minha figurinha</tspan><tspan x="0" y="32">da Copa 2022</tspan></text>
    <path id="Caminho_1" data-name="Caminho 1" d="M1000.593,842.164l-4.264-31.041V779.841a3.188,3.188,0,0,0-3.182-3.182h-1.554l-.065-.481a3.184,3.184,0,0,0-3.579-2.71L964.7,776.659H941.164a3.193,3.193,0,0,0-3.182,3.182v.481l-1.536.213a3.171,3.171,0,0,0-2.1,1.23,3.128,3.128,0,0,0-.62,2.359l4.255,30.967v31.347a3.188,3.188,0,0,0,3.182,3.182h1.563l.065.481a3.124,3.124,0,0,0,1.221,2.1,3.173,3.173,0,0,0,1.924.647,3.555,3.555,0,0,0,.435-.028l23.327-3.2h23.448a3.182,3.182,0,0,0,3.182-3.182v-.472l1.545-.213A3.2,3.2,0,0,0,1000.593,842.164Zm-31.217,2.83H947.63V839a14.349,14.349,0,0,1,14.337-14.337h10.387A14.355,14.355,0,0,1,986.69,839v5.948l-.324.046Zm-2.22-24.955a10.475,10.475,0,1,1,10.48-10.48A10.487,10.487,0,0,1,967.155,820.039ZM991.7,844.994h-.388V839a18.981,18.981,0,0,0-13.985-18.3,15.1,15.1,0,1,0-20.34,0A19.067,19.067,0,0,0,944.818,830.9a18.764,18.764,0,0,0-1.6,5.318A18.429,18.429,0,0,0,943,839v5.994h-.4V781.283h49.1v63.711Z" transform="translate(-472.696 -745.29)" fill="#fff" stroke="#fff" stroke-width="1"/>
  </g>
</svg>
