<svg xmlns="http://www.w3.org/2000/svg" width="42.948" height="67.183" viewBox="0 0 42.948 67.183">
  <g id="Grupo_644" data-name="Grupo 644" transform="translate(708.893 -2275.994)">
    <rect id="Retângulo_122" data-name="Retângulo 122" width="41.948" height="63.058" transform="translate(-708.393 2278.055)" fill="none" stroke="#fff" stroke-miterlimit="10" stroke-width="1"/>
    <rect id="Retângulo_124" data-name="Retângulo 124" width="29.933" height="13.002" transform="translate(-702.386 2278.055)" fill="none" stroke="#fff" stroke-miterlimit="10" stroke-width="1"/>
    <rect id="Retângulo_125" data-name="Retângulo 125" width="13.273" height="5.285" transform="translate(-694.056 2278.055)" fill="none" stroke="#fff" stroke-miterlimit="10" stroke-width="1"/>
    <rect id="Retângulo_126" data-name="Retângulo 126" width="4.794" height="1.561" transform="translate(-689.816 2276.494)" fill="none" stroke="#fff" stroke-miterlimit="10" stroke-width="1"/>
    <path id="Caminho_1507" data-name="Caminho 1507" d="M46.713,45.7a8.111,8.111,0,0,0,12.143,0Z" transform="translate(-740.204 2245.362)" fill="none" stroke="#fff" stroke-miterlimit="10" stroke-width="1"/>
    <rect id="Retângulo_127" data-name="Retângulo 127" width="29.933" height="13.002" transform="translate(-702.386 2328.113)" fill="none" stroke="#fff" stroke-miterlimit="10" stroke-width="1"/>
    <rect id="Retângulo_128" data-name="Retângulo 128" width="13.273" height="5.285" transform="translate(-694.056 2335.83)" fill="none" stroke="#fff" stroke-miterlimit="10" stroke-width="1"/>
    <rect id="Retângulo_129" data-name="Retângulo 129" width="4.794" height="1.561" transform="translate(-689.816 2341.115)" fill="none" stroke="#fff" stroke-miterlimit="10" stroke-width="1"/>
    <path id="Caminho_1509" data-name="Caminho 1509" d="M58.856,151.807a8.111,8.111,0,0,0-12.143,0Z" transform="translate(-740.204 2176.306)" fill="none" stroke="#fff" stroke-miterlimit="10" stroke-width="1"/>
    <path id="Caminho_1510" data-name="Caminho 1510" d="M61.65,167.542a1.112,1.112,0,1,1,1.112,1.115,1.113,1.113,0,0,1-1.112-1.115" transform="translate(-750.181 2164.714)" fill="#fff" stroke="#707070" stroke-width="1"/>
    <line id="Linha_3" data-name="Linha 3" x2="41.948" transform="translate(-708.393 2309.584)" fill="none" stroke="#fff" stroke-miterlimit="10" stroke-width="1"/>
    <ellipse id="Elipse_4" data-name="Elipse 4" cx="6.412" cy="6.426" rx="6.412" ry="6.426" transform="translate(-693.831 2303.158)" fill="none" stroke="#fff" stroke-miterlimit="10" stroke-width="1"/>
    <rect id="Retângulo_133" data-name="Retângulo 133" width="29.933" height="13.002" transform="translate(-702.386 2278.055)" fill="none" stroke="#fff" stroke-miterlimit="10" stroke-width="1"/>
    <rect id="Retângulo_134" data-name="Retângulo 134" width="13.273" height="5.285" transform="translate(-694.056 2278.055)" fill="none" stroke="#fff" stroke-miterlimit="10" stroke-width="1"/>
    <rect id="Retângulo_135" data-name="Retângulo 135" width="4.794" height="1.561" transform="translate(-689.816 2276.494)" fill="none" stroke="#fff" stroke-miterlimit="10" stroke-width="1"/>
    <path id="Caminho_1512" data-name="Caminho 1512" d="M46.713,45.7a8.111,8.111,0,0,0,12.143,0Z" transform="translate(-740.204 2245.362)" fill="none" stroke="#fff" stroke-miterlimit="10" stroke-width="1"/>
    <rect id="OFENSIVO" width="30.386" height="13" transform="translate(-702.386 2328.366)" fill="#ab0b38"/>
    <rect id="Retângulo_136" data-name="Retângulo 136" width="29.933" height="13.002" transform="translate(-702.386 2328.113)" fill="none" stroke="#fff" stroke-miterlimit="10" stroke-width="1"/>
    <rect id="Retângulo_137" data-name="Retângulo 137" width="13.273" height="5.285" transform="translate(-694.056 2335.83)" fill="none" stroke="#fff" stroke-miterlimit="10" stroke-width="1"/>
    <rect id="Retângulo_138" data-name="Retângulo 138" width="4.794" height="1.561" transform="translate(-689.816 2341.115)" fill="none" stroke="#fff" stroke-miterlimit="10" stroke-width="1"/>
    <path id="Caminho_1514" data-name="Caminho 1514" d="M58.856,151.807a8.111,8.111,0,0,0-12.143,0Z" transform="translate(-740.204 2176.306)" fill="none" stroke="#fff" stroke-miterlimit="10" stroke-width="1"/>
    <path id="Caminho_1515" data-name="Caminho 1515" d="M61.65,167.542a1.112,1.112,0,1,1,1.112,1.115,1.113,1.113,0,0,1-1.112-1.115" transform="translate(-750.181 2164.714)" fill="#fff"/>
    <line id="Linha_4" data-name="Linha 4" x2="41.948" transform="translate(-708.393 2309.584)" fill="#e7e6dd" stroke="#fff" stroke-miterlimit="10" stroke-width="1"/>
    <path id="Caminho_1522" data-name="Caminho 1522" d="M55.756,82.144,51.161,93.05l4.595-1.718L60.35,93.05Z" transform="translate(-743.175 2221.015)" fill="#fff"/>
    <path id="Caminho_1523" data-name="Caminho 1523" d="M63.874,30.972a1.112,1.112,0,1,1-1.112-1.115,1.113,1.113,0,0,1,1.112,1.115" transform="translate(-750.181 2255.942)" fill="#fff"/>
  </g>
</svg>
