<svg xmlns="http://www.w3.org/2000/svg" width="187" height="52" viewBox="0 0 187 52">
  <g id="Grupo_486" data-name="Grupo 486" transform="translate(-975 -844)">
    <path id="Ret창ngulo_5" data-name="Ret창ngulo 5" d="M0,0H134a2,2,0,0,1,2,2V50a2,2,0,0,1-2,2H0a0,0,0,0,1,0,0V0A0,0,0,0,1,0,0Z" transform="translate(1026 844)" fill="#d0bd5b"/>
    <path id="Caminho_1524" data-name="Caminho 1524" d="M-30.25-.591V-4.028a6.605,6.605,0,0,0,2.03,1.176,6.526,6.526,0,0,0,2.213.392,4.907,4.907,0,0,0,1.144-.118,2.68,2.68,0,0,0,.816-.328,1.429,1.429,0,0,0,.489-.494,1.233,1.233,0,0,0,.161-.618,1.335,1.335,0,0,0-.258-.806,2.774,2.774,0,0,0-.7-.655,7.352,7.352,0,0,0-1.058-.58q-.612-.279-1.321-.569a6.744,6.744,0,0,1-2.691-1.837,4.01,4.01,0,0,1-.886-2.621,4.175,4.175,0,0,1,.483-2.068,4.105,4.105,0,0,1,1.316-1.423,5.9,5.9,0,0,1,1.928-.822,9.908,9.908,0,0,1,2.32-.263,13.956,13.956,0,0,1,2.132.145,8.386,8.386,0,0,1,1.713.446v3.212a5.181,5.181,0,0,0-.843-.473,6.681,6.681,0,0,0-.94-.338,7.17,7.17,0,0,0-.961-.2,6.8,6.8,0,0,0-.908-.064,4.734,4.734,0,0,0-1.074.113,2.755,2.755,0,0,0-.816.317,1.577,1.577,0,0,0-.516.489,1.159,1.159,0,0,0-.183.639,1.221,1.221,0,0,0,.2.693,2.341,2.341,0,0,0,.58.58,6.156,6.156,0,0,0,.913.537q.537.263,1.214.542a13.526,13.526,0,0,1,1.66.822,5.9,5.9,0,0,1,1.262.983,3.829,3.829,0,0,1,.806,1.251,4.422,4.422,0,0,1,.279,1.638,4.388,4.388,0,0,1-.489,2.165A3.968,3.968,0,0,1-21.56-.747a5.753,5.753,0,0,1-1.95.779,11.268,11.268,0,0,1-2.347.236A13.051,13.051,0,0,1-28.268.054,7.28,7.28,0,0,1-30.25-.591ZM-8.39,0H-11.6V-1.579h-.043A3.585,3.585,0,0,1-14.921.269,3.427,3.427,0,0,1-17.44-.639a3.253,3.253,0,0,1-.918-2.422q0-3.2,3.792-3.7l2.986-.4q0-1.8-1.955-1.8a6.673,6.673,0,0,0-3.738,1.171v-2.557a8.41,8.41,0,0,1,1.939-.645,10.192,10.192,0,0,1,2.24-.279q4.705,0,4.705,4.694Zm-3.19-4.469V-5.21l-2,.258q-1.654.215-1.654,1.493a1.234,1.234,0,0,0,.4.951,1.548,1.548,0,0,0,1.09.371A2.01,2.01,0,0,0-12.182-2.8,2.386,2.386,0,0,0-11.58-4.469ZM-2.31,0H-5.7V-16.285H-2.31ZM11.021-11,6.929,0H3.062l-3.9-11H2.793L4.705-4.222a9.9,9.9,0,0,1,.376,1.955h.043a11.1,11.1,0,0,1,.4-1.891L7.477-11ZM21.291,0H18.079V-1.579h-.043A3.585,3.585,0,0,1,14.76.269a3.427,3.427,0,0,1-2.519-.908,3.253,3.253,0,0,1-.918-2.422q0-3.2,3.792-3.7l2.986-.4q0-1.8-1.955-1.8a6.673,6.673,0,0,0-3.738,1.171v-2.557a8.41,8.41,0,0,1,1.939-.645,10.192,10.192,0,0,1,2.24-.279q4.705,0,4.705,4.694ZM18.1-4.469V-5.21l-2,.258q-1.654.215-1.654,1.493a1.234,1.234,0,0,0,.4.951,1.548,1.548,0,0,0,1.09.371A2.01,2.01,0,0,0,17.5-2.8,2.386,2.386,0,0,0,18.1-4.469Zm13.052-3.47a2.945,2.945,0,0,0-1.429-.333,2.058,2.058,0,0,0-1.729.811,3.538,3.538,0,0,0-.623,2.208V0H23.977V-11h3.395v2.041h.043a2.937,2.937,0,0,1,2.9-2.234,2.186,2.186,0,0,1,.838.129Z" transform="translate(1094 878)" fill="#8e1537"/>
    <path id="Ret창ngulo_6" data-name="Ret창ngulo 6" d="M2,0H51a0,0,0,0,1,0,0V52a0,0,0,0,1,0,0H2a2,2,0,0,1-2-2V2A2,2,0,0,1,2,0Z" transform="translate(975 844)" fill="#8e1537"/>
    <g id="_3994354_arrow_download_downloading_interface_save_icon" data-name="3994354_arrow_download_downloading_interface_save_icon" transform="translate(985 850.48)">
      <path id="Caminho_1505" data-name="Caminho 1505" d="M29.642,54a1.975,1.975,0,0,0-1.976,1.976V61.9H3.952V55.976a1.976,1.976,0,1,0-3.952,0v7.9a1.975,1.975,0,0,0,1.976,1.976H29.642a1.975,1.975,0,0,0,1.976-1.976v-7.9A1.975,1.975,0,0,0,29.642,54Z" transform="translate(0 -32.191)" fill="#fff"/>
      <path id="Caminho_1506" data-name="Caminho 1506" d="M30.508,25.182a1.975,1.975,0,0,0,2.794,0l5.928-5.928a1.976,1.976,0,1,0-2.794-2.794l-2.555,2.555V7.976a1.976,1.976,0,0,0-3.952,0V19.015L27.374,16.46a1.976,1.976,0,1,0-2.794,2.794Z" transform="translate(-16.096)" fill="#fff"/>
    </g>
  </g>
</svg>
